<svg viewBox="0 0 24 24" id="cat-groceries">
                <path
                  fill-rule="evenodd"
                  d="M20.672 7.538c-1.144-1.392-2.904-2.066-4.95-1.898a9.822 9.822 0 0 0-3.278.823c.132-1.497-.132-3.647-2.376-4.406-1.078-.359-1.54 1.096-.858 1.264 1.408.359 2.046 1.455 2.222 3.078-.968-.4-2.046-.674-3.168-.759-2.068-.147-3.828.528-4.95 1.898-1.475 1.792-1.717 4.575-.683 7.631 1.65 4.87 4.687 7.38 8.119 6.726a5.77 5.77 0 0 0 1.254-.401c.418.19.836.316 1.254.4.352.064.726.106 1.078.106 2.97 0 5.544-2.467 7.04-6.83 1.035-3.057.77-5.84-.704-7.632zm-.836 7.147c-.506 1.517-2.486 6.43-6.27 5.692a4.464 4.464 0 0 1-1.188-.422.835.835 0 0 0-.396-.084.895.895 0 0 0-.396.084c-.396.21-.792.358-1.188.422-3.762.738-5.742-4.175-6.27-5.692-.88-2.551-.727-4.828.418-6.22.814-.97 2.046-1.433 3.564-1.328 1.254.085 2.442.443 3.432 1.012a.845.845 0 0 0 .836 0c.99-.569 2.156-.927 3.432-1.012 1.54-.105 2.772.338 3.564 1.328 1.188 1.413 1.342 3.669.462 6.22z"
                ></path>
              </svg>