<svg viewBox="0 0 24 24" id="cat-beauty"><path d="M9.7 13.23H8V8.66h.3a.74.74 0 0 0 .7-.75.75.75 0 0 0-.75-.76H8v-.58h.3a.76.76 0 0 0 0-1.51H8v-.58h.3a.75.75 0 0 0 .7-.76.74.74 0 0 0-.72-.72H8v-.24a.76.76 0 1 0-1.51 0V3h-.3a.76.76 0 1 0 0 1.51h.3v.58h-.3a.76.76 0 0 0 0 1.52h.3v.58h-.3a.76.76 0 1 0 0 1.51h.3v4.56H4.75A.76.76 0 0 0 4 14v6.38a2 2 0 0 0 2 2h2.42a2 2 0 0 0 2-2V14a.76.76 0 0 0-.72-.77zm-.76 7.13a.52.52 0 0 1-.52.53H6a.53.53 0 0 1-.53-.53v-5.62h3.47zM19.11 8.27h-.34V5.41a.76.76 0 0 0-.77-.75h-2.73a.76.76 0 0 0-.76.75v2.86h-.34a.76.76 0 0 0-.76.75v11.34a2 2 0 0 0 2 2h2.38a2 2 0 0 0 2-2V9a.76.76 0 0 0-.68-.73zM16 6.17h1.24v2.1H16zm2.33 14.19a.52.52 0 0 1-.52.53h-2.36a.53.53 0 0 1-.53-.53V9.78h3.43z"></path></svg>