<svg viewBox="0 0 24 24" id="cat-tv"><path id="cat-tv_a" d="M3.585 20.464h16.829V8.336H3.585v12.128zM21.207 6.8c.437 0 .793.344.793.768v13.663a.781.781 0 0 1-.793.768H2.793A.78.78 0 0 1 2 21.232V7.569a.78.78 0 0 1 .793-.768h8.284L7.474 3.31a.75.75 0 0 1 0-1.086.81.81 0 0 1 1.12 0L12 5.522l3.406-3.297a.81.81 0 0 1 1.12 0c.31.3.31.786 0 1.086L12.923 6.8h8.284zm-8.908 11.36a3.866 3.866 0 0 1-3.862-3.862 3.867 3.867 0 0 1 3.862-3.863 3.867 3.867 0 0 1 3.862 3.863 3.866 3.866 0 0 1-3.862 3.862zm0-9.161A5.305 5.305 0 0 0 7 14.299a5.305 5.305 0 0 0 5.299 5.299 5.305 5.305 0 0 0 5.299-5.299A5.305 5.305 0 0 0 12.299 9zm-.624 6.914l2.56-1.548a.44.44 0 0 0-.01-.753l-2.55-1.547a.443.443 0 0 0-.675.376v3.095c0 .348.378.555.675.377z"></path></svg>