<svg viewBox="0 0 24 24" class="ic -mrxs -fsh0" width="20" height="20"><path id="cat-fashion_a" d="M23.278 6.466a.738.738 0 0 1 .017.262.75.75 0 0 1-.079.252l-2.036 3.799a.68.68 0 0 1-.165.203.624.624 0 0 1-.729.05l-1.721-1.07v10.382a.724.724 0 0 1-.188.483.633.633 0 0 1-.463.205H6.382a.632.632 0 0 1-.464-.207.703.703 0 0 1-.186-.481V9.962l-1.72 1.07a.61.61 0 0 1-.245.089.578.578 0 0 1-.257-.018.645.645 0 0 1-.393-.324l-2.033-3.8a.73.73 0 0 1-.062-.514.688.688 0 0 1 .298-.416c1.059-.66 1.816-1.165 2.425-1.571.822-.55 1.318-.881 1.841-1.113.798-.354 1.48-.361 3.042-.365h.704a.631.631 0 0 1 .44.183.688.688 0 0 1 .207.438c.142 1.5 1.075 2.632 2.171 2.632 1.094 0 2.027-1.132 2.171-2.634a.71.71 0 0 1 .207-.436.63.63 0 0 1 .439-.182L15.536 3c1.623 0 2.343-.005 3.175.365.524.232 1.021.564 1.844 1.114.608.406 1.366.91 2.425 1.57a.694.694 0 0 1 .298.416zM17.35 8.42a.632.632 0 0 1 .895-.252l.672.418 1.408-2.632-.562-.371c-.743-.493-1.191-.791-1.555-.952-.56-.248-1.045-.274-2.542-.256h-.147c-.351 1.642-1.401 2.868-2.719 3.177v12.103h4.464V8.76c0-.12.03-.237.086-.34zm4.42-1.532l-.337-.214-1.395 2.609.337.21 1.395-2.605zm-18.972-.17l-.269.17 1.393 2.605.271-.168-1.395-2.607zm4.15 1.705a.724.724 0 0 1 .085.338v10.895h4.466V7.553c-1.318-.31-2.37-1.535-2.719-3.177l-.298-.002h-.071c-1.316 0-1.79.023-2.322.258-.364.162-.813.46-1.558.955l-.623.412 1.405 2.63.74-.46a.633.633 0 0 1 .895.254z"></path></svg>